{"title":"18+ Like Me 2017 Movies 720p HDRip x264 5.1 with Sample ☻rDX☻","magnet":"magnet:?xt=urn:btih:554c9bc35449d64d80e6994bb0c9121ab5e16684&dn=18%2B+Like+Me+2017+Movies+720p+HDRip+x264+5.1+with+Sample+%E2%98%BBrDX%E2%98%BB&tr=udp%3A%2F%2Ftracker.leechers-paradise.org%3A6969&tr=udp%3A%2F%2Fzer0day.ch%3A1337&tr=udp%3A%2F%2Fopen.demonii.com%3A1337&tr=udp%3A%2F%2Ftracker.coppersurfer.tk%3A6969&tr=udp%3A%2F%2Fexodus.desync.com%3A6969","uploader":"basicssom","categoryP":"video","categoryS":"hd___movies","size":"946862314","seeders":"0","leechers":"0","description":"----------------------------------------------------------------\r\n18+ Like Me 2017 Movies 720p HDRip x264 5.1 with Sample &#x263B;rDX&#x263B;\r\n\r\nSCREEN SHOTS &amp; POSTER:\r\n   <a href=\"\nhttp://iphonehosting.eu/2018/3/debit/index.html\" rel=\"nofollow\" target=\"_NEW\">\nhttp://iphonehosting.eu/2018/3/debit/index.html</a> <a href=\"\nhttp://iphonehosting.eu/2018/3/debit/1.html\" rel=\"nofollow\" target=\"_NEW\">\nhttp://iphonehosting.eu/2018/3/debit/1.html</a> <a href=\"\nhttp://iphonehosting.eu/2018/3/debit/2.html\" rel=\"nofollow\" target=\"_NEW\">\nhttp://iphonehosting.eu/2018/3/debit/2.html</a>   <a href=\"\nhttp://iphonehosting.eu/2018/3/debit/3.html\" rel=\"nofollow\" target=\"_NEW\">\nhttp://iphonehosting.eu/2018/3/debit/3.html</a>   <a href=\"\nhttp://iphonehosting.eu/2018/3/debit/4.html\" rel=\"nofollow\" target=\"_NEW\">\nhttp://iphonehosting.eu/2018/3/debit/4.html</a>   <a href=\"\nhttp://iphonehosting.eu/2018/3/debit/5.html\" rel=\"nofollow\" target=\"_NEW\">\nhttp://iphonehosting.eu/2018/3/debit/5.html</a>   <a href=\"\nhttp://iphonehosting.eu/2018/3/debit/6.html\" rel=\"nofollow\" target=\"_NEW\">\nhttp://iphonehosting.eu/2018/3/debit/6.html</a>   <a href=\"\nhttp://iphonehosting.eu/2018/3/debit/7.html\" rel=\"nofollow\" target=\"_NEW\">\nhttp://iphonehosting.eu/2018/3/debit/7.html</a>   <a href=\"\nhttp://iphonehosting.eu/2018/3/debit/8.html\" rel=\"nofollow\" target=\"_NEW\">\nhttp://iphonehosting.eu/2018/3/debit/8.html</a>   <a href=\"\nhttp://iphonehosting.eu/2018/3/debit/9.html\" rel=\"nofollow\" target=\"_NEW\">\nhttp://iphonehosting.eu/2018/3/debit/9.html</a>   <a href=\"\nhttp://iphonehosting.eu/2018/3/debit/10.html\" rel=\"nofollow\" target=\"_NEW\">\nhttp://iphonehosting.eu/2018/3/debit/10.html</a>\r\n\r\nFile size                                : 892 MiB\r\nDuration                                 : 1 h 23 min\r\nOverall bit rate                         : 1 485 kb/s\r\nMovie name                               : 18+ Like Me 2017 Movies 720p HDRip x264 5.1 &#x263B;rDX&#x263B;\r\n\r\nVideo\r\nID                                       : 2\r\nFormat                                   : AVC\r\nFormat/Info                              : Advanced Video Codec\r\nFormat profile                           : <a href=\"/cdn-cgi/l/email-protection\" class=\"__cf_email__\" data-cfemail=\"7d35141a153d3149534c\">[email&#xA0;protected]</a>\r\nFormat settings, CABAC                   : Yes\r\nFormat settings, ReFrames                : 4 frames\r\nCodec ID                                 : V_MPEG4/ISO/AVC\r\nDuration                                 : 1 h 23 min\r\nBit rate                                 : 1 100 kb/s\r\nWidth                                    : 1 280 pixels\r\nHeight                                   : 694 pixels\r\nDisplay aspect ratio                     : 1.85:1\r\nOriginal display aspect ratio            : 1.85:1\r\nFrame rate mode                          : Constant\r\nFrame rate                               : 23.810 FPS\r\nColor space                              : YUV\r\nChroma subsampling                       : 4:2:0\r\nBit depth                                : 8 bits\r\nScan type                                : Progressive\r\nBits/(Pixel*Frame)                       : 0.052\r\nStream size                              : 643 MiB (72%)\r\nTitle                                    : &#x263B;rDX&#x263B;\r\nWriting library                          : x264\r\n\r\nAudio\r\nID                                       : 1\r\nFormat                                   : AC-3\r\nFormat/Info                              : Audio Coding 3\r\nMode extension                           : CM (complete main)\r\nFormat settings, Endianness              : Big\r\nCodec ID                                 : A_AC3\r\nDuration                                 : 1 h 23 min\r\nBit rate mode                            : Constant\r\nBit rate                                 : 384 kb/s\r\nChannel(s)                               : 6 channels\r\nChannel positions                        : Front: L C R, Side: L R, LFE\r\nSampling rate                            : 48.0 kHz\r\nFrame rate                               : 31.250 FPS (1536 spf)\r\nBit depth                                : 16 bits\r\nCompression mode                         : Lossy\r\nStream size                              : 230 MiB (26%)\r\nTitle                                    : &#x263B;rDX&#x263B;\r\nLanguage                                 : English\r\nDefault                                  : Yes\r\nForced                                   : No","last_updated":"2018-03-30T12:01:22.436Z","parsed":{"xt":"urn:btih:554c9bc35449d64d80e6994bb0c9121ab5e16684","dn":"18  Like Me 2017 Movies 720p HDRip x264 5.1 with Sample ☻rDX☻","tr":["udp://exodus.desync.com:6969","udp://open.demonii.com:1337","udp://tracker.coppersurfer.tk:6969","udp://tracker.leechers-paradise.org:6969","udp://zer0day.ch:1337"],"infoHash":"554c9bc35449d64d80e6994bb0c9121ab5e16684","infoHashBuffer":{"type":"Buffer","data":[85,76,155,195,84,73,214,77,128,230,153,75,176,201,18,26,181,225,102,132]},"name":"18  Like Me 2017 Movies 720p HDRip x264 5.1 with Sample ☻rDX☻","announce":["udp://exodus.desync.com:6969","udp://open.demonii.com:1337","udp://tracker.coppersurfer.tk:6969","udp://tracker.leechers-paradise.org:6969","udp://zer0day.ch:1337"],"urlList":[]}}